<svg xmlns="http://www.w3.org/2000/svg" width="16" height="18" fill="none">
  <path stroke="#1D2939" stroke-linecap="round" stroke-linejoin="round" stroke-width="1.5" d="M12.375 8V5.375a4.375 4.375 0 0 0-8.75 0V8M5.2 16.75h5.6c1.47 0 2.205 0 2.767-.286a2.625 2.625 0 0 0 1.147-1.147C15 14.755 15 14.02 15 12.55v-.35c0-1.47 0-2.205-.286-2.767a2.625 2.625 0 0 0-1.147-1.147C13.005 8 12.27 8 10.8 8H5.2c-1.47 0-2.205 0-2.767.286a2.625 2.625 0 0 0-1.147 1.147C1 9.995 1 10.73 1 12.2v.35c0 1.47 0 2.205.286 2.767.252.494.653.895 1.147 1.147.562.286 1.297.286 2.767.286z"/>
</svg>
