<svg xmlns="http://www.w3.org/2000/svg" width="14" height="12" fill="none">
  <path stroke="#1D2939" stroke-linecap="round" stroke-linejoin="round" stroke-width="1.25" d="m.75 2.875 5.103 3.572c.413.29.62.434.845.49.198.05.406.05.604 0 .225-.056.432-.2.845-.49l5.103-3.572M3.75 11h6.5c1.05 0 1.575 0 1.976-.204.353-.18.64-.467.82-.82.204-.4.204-.926.204-1.976V4c0-1.05 0-1.575-.204-1.976a1.875 1.875 0 0 0-.82-.82C11.826 1 11.3 1 10.25 1h-6.5c-1.05 0-1.575 0-1.976.204-.353.18-.64.467-.82.82C.75 2.424.75 2.95.75 4v4c0 1.05 0 1.575.204 1.976.18.353.467.64.82.82.4.204.926.204 1.976.204z"/>
</svg>
